<svg width="48" height="49" viewBox="0 0 48 49" fill="none" xmlns="http://www.w3.org/2000/svg">
<path d="M20.2583 3.39245C21.2417 3.90078 21.6167 5.10912 21.1083 6.09245L14.3083 19.1674H33.6917L26.8917 6.09245C26.3833 5.10912 26.7667 3.90078 27.7417 3.39245C28.7167 2.88412 29.925 3.26745 30.4417 4.24245L38.2 19.1674H41.2083H45.3333H46C47.1083 19.1674 48 20.0591 48 21.1674C48 22.2758 47.1083 23.1674 46 23.1674H44.3333L39.675 41.7924C39.0833 44.1674 36.95 45.8341 34.5 45.8341H13.5C11.05 45.8341 8.91667 44.1674 8.325 41.7924L3.66667 23.1674H2C0.891667 23.1674 0 22.2758 0 21.1674C0 20.0591 0.891667 19.1674 2 19.1674H2.66667H6.79167H9.8L17.5583 4.24245C18.0667 3.25912 19.275 2.88412 20.2583 3.39245ZM7.79167 23.1674L12.2083 40.8258C12.3583 41.4174 12.8917 41.8341 13.5 41.8341H34.5C35.1083 41.8341 35.6417 41.4174 35.7917 40.8258L40.2083 23.1674H7.79167ZM18.6667 29.1674V35.8341C18.6667 36.9424 17.775 37.8341 16.6667 37.8341C15.5583 37.8341 14.6667 36.9424 14.6667 35.8341V29.1674C14.6667 28.0591 15.5583 27.1674 16.6667 27.1674C17.775 27.1674 18.6667 28.0591 18.6667 29.1674ZM24 27.1674C25.1083 27.1674 26 28.0591 26 29.1674V35.8341C26 36.9424 25.1083 37.8341 24 37.8341C22.8917 37.8341 22 36.9424 22 35.8341V29.1674C22 28.0591 22.8917 27.1674 24 27.1674ZM33.3333 29.1674V35.8341C33.3333 36.9424 32.4417 37.8341 31.3333 37.8341C30.225 37.8341 29.3333 36.9424 29.3333 35.8341V29.1674C29.3333 28.0591 30.225 27.1674 31.3333 27.1674C32.4417 27.1674 33.3333 28.0591 33.3333 29.1674Z" fill="white"/>
</svg>
