<svg width="48" height="49" viewBox="0 0 48 49" fill="none" xmlns="http://www.w3.org/2000/svg">
<path d="M6.61642 28.4825C7.3514 27.11 7.1264 25.4226 6.05394 24.2976C4.4565 22.6177 3.60153 20.6003 3.60153 18.5003C3.60153 13.738 8.38636 8.90066 15.6011 8.90066C22.8159 8.90066 27.6007 13.738 27.6007 18.5003C27.6007 23.2627 22.8159 28.1 15.6011 28.1C14.6186 28.1 13.6662 28.0025 12.7662 27.83C11.9862 27.68 11.1763 27.785 10.4638 28.145C10.1563 28.3025 9.84131 28.4525 9.51882 28.595C8.31886 29.135 7.05141 29.6074 5.77645 29.9449C5.98644 29.5999 6.18144 29.2625 6.36893 28.925C6.45143 28.7825 6.53392 28.6325 6.60892 28.4825H6.61642ZM15.6011 31.6999C24.2183 31.6999 31.2006 25.7901 31.2006 18.5003C31.2006 11.2106 24.2183 5.30078 15.6011 5.30078C6.98391 5.30078 0.00164904 11.2106 0.00164904 18.5003C0.00164904 21.6352 1.2916 24.5076 3.44403 26.7725C3.37653 26.9 3.30154 27.035 3.23404 27.155C2.46156 28.535 1.5616 29.8924 0.489132 31.0624C-0.0058507 31.5874 -0.133346 32.3524 0.144144 33.0048C0.436634 33.6723 1.08161 34.0998 1.80159 34.0998C5.02648 34.0998 8.28886 33.1023 11.0038 31.8724C11.3638 31.7074 11.7237 31.5349 12.0687 31.3624C13.2012 31.5874 14.3862 31.6999 15.6011 31.6999ZM32.4005 41.2995C33.6155 41.2995 34.793 41.1796 35.9329 40.9621C36.2779 41.1346 36.6379 41.307 36.9979 41.472C39.7128 42.702 42.9752 43.6995 46.2001 43.6995C46.92 43.6995 47.565 43.272 47.85 42.612C48.135 41.952 48 41.187 47.505 40.6696C46.4401 39.4996 45.5401 38.1422 44.7601 36.7622C44.6926 36.6347 44.6176 36.5072 44.5501 36.3797C46.71 34.1073 48 31.2349 48 28.1C48 21.0202 41.4077 15.2379 33.1355 14.9155C33.443 16.0554 33.6005 17.2554 33.6005 18.5003V18.5453C40.1403 19.0478 44.4001 23.6077 44.4001 28.1C44.4001 30.1999 43.5452 32.2174 41.9477 33.8898C40.8752 35.0148 40.6502 36.7097 41.3852 38.0747C41.4677 38.2247 41.5502 38.3746 41.6252 38.5171C41.8127 38.8546 42.0152 39.1921 42.2177 39.5371C40.9427 39.1996 39.6753 38.7346 38.4753 38.1872C38.1528 38.0447 37.8379 37.8947 37.5304 37.7372C36.8179 37.3772 36.0079 37.2722 35.2279 37.4222C34.3205 37.6022 33.368 37.6922 32.393 37.6922C27.7657 37.6922 24.1433 35.7047 22.1334 33.0198C20.9334 33.4248 19.6735 33.7248 18.3835 33.9048C20.9259 38.2846 26.2507 41.2995 32.4005 41.2995ZM13.8237 11.7731C12.5937 11.7731 11.4988 12.5455 11.0938 13.7005L11.0713 13.768C10.8463 14.3905 11.1763 15.0804 11.7987 15.2979C12.4212 15.5154 13.1112 15.1929 13.3287 14.5705L13.3512 14.503C13.4187 14.3005 13.6137 14.173 13.8237 14.173H16.9211C17.4086 14.173 17.7985 14.5705 17.7985 15.0504C17.7985 15.3654 17.6335 15.6579 17.3561 15.8154L15.0011 17.1654C14.6261 17.3829 14.4012 17.7729 14.4012 18.2078V18.9203C14.4012 19.5803 14.9411 20.1203 15.6011 20.1203C16.2611 20.1203 16.8011 19.5803 16.8011 18.9203V18.8978L18.556 17.9003C19.576 17.3154 20.206 16.2279 20.206 15.0579C20.206 13.243 18.736 11.7806 16.9286 11.7806H13.8312L13.8237 11.7731ZM15.6011 25.3026C15.8337 25.3181 16.0669 25.2856 16.2865 25.2072C16.506 25.1289 16.7071 25.0063 16.8772 24.847C17.0474 24.6877 17.1831 24.4952 17.2759 24.2814C17.3686 24.0676 17.4165 23.837 17.4165 23.6039C17.4165 23.3708 17.3686 23.1402 17.2759 22.9264C17.1831 22.7126 17.0474 22.5201 16.8772 22.3608C16.7071 22.2016 16.506 22.0789 16.2865 22.0006C16.0669 21.9222 15.8337 21.8897 15.6011 21.9052C15.3685 21.8897 15.1353 21.9222 14.9158 22.0006C14.6963 22.0789 14.4952 22.2016 14.325 22.3608C14.1548 22.5201 14.0191 22.7126 13.9264 22.9264C13.8336 23.1402 13.7857 23.3708 13.7857 23.6039C13.7857 23.837 13.8336 24.0676 13.9264 24.2814C14.0191 24.4952 14.1548 24.6877 14.325 24.847C14.4952 25.0063 14.6963 25.1289 14.9158 25.2072C15.1353 25.2856 15.3685 25.3181 15.6011 25.3026ZM40.4478 26.9525C40.9127 26.4876 40.9127 25.7226 40.4478 25.2576C39.9828 24.7926 39.2178 24.7926 38.7528 25.2576L33.203 30.8074L30.8481 28.4525C30.3831 27.9875 29.6181 27.9875 29.1532 28.4525C28.6882 28.9175 28.6882 29.6824 29.1532 30.1474L32.3555 33.3498C32.8205 33.8148 33.5855 33.8148 34.0505 33.3498L40.4478 26.9525Z" fill="white"/>
</svg>
