<svg width="48" height="49" viewBox="0 0 48 49" fill="none" xmlns="http://www.w3.org/2000/svg">
<path d="M0.584249 34.4901L8.69817 42.4178C9.49266 43.1941 10.7774 43.1941 11.5634 42.4178L19.6773 34.4901C20.4718 33.7139 20.4718 32.4587 19.6773 31.6907C18.8828 30.9227 17.5981 30.9144 16.8121 31.6907L12.1635 36.2326V7.98192C12.1635 6.88361 11.2591 6 10.135 6C9.0109 6 8.10653 6.88361 8.10653 7.98192V36.2326L3.45793 31.6824C2.66344 30.9062 1.37874 30.9062 0.592701 31.6824C-0.193335 32.4587 -0.201787 33.7139 0.592701 34.4819L0.584249 34.4901ZM25.6867 42.9959H29.7437C30.8678 42.9959 31.7721 42.1123 31.7721 41.014C31.7721 39.9156 30.8678 39.032 29.7437 39.032H25.6867C24.5626 39.032 23.6582 39.9156 23.6582 41.014C23.6582 42.1123 24.5626 42.9959 25.6867 42.9959ZM25.6867 32.4256H35.153C36.2771 32.4256 37.1814 31.542 37.1814 30.4437C37.1814 29.3454 36.2771 28.4618 35.153 28.4618H25.6867C24.5626 28.4618 23.6582 29.3454 23.6582 30.4437C23.6582 31.542 24.5626 32.4256 25.6867 32.4256ZM25.6867 21.8554H40.5622C41.6864 21.8554 42.5907 20.9718 42.5907 19.8735C42.5907 18.7751 41.6864 17.8915 40.5622 17.8915H25.6867C24.5626 17.8915 23.6582 18.7751 23.6582 19.8735C23.6582 20.9718 24.5626 21.8554 25.6867 21.8554ZM25.6867 11.2851H45.9715C47.0956 11.2851 48 10.4015 48 9.3032C48 8.20489 47.0956 7.32128 45.9715 7.32128H25.6867C24.5626 7.32128 23.6582 8.20489 23.6582 9.3032C23.6582 10.4015 24.5626 11.2851 25.6867 11.2851Z" fill="white"/>
</svg>
