<svg width="48" height="49" viewBox="0 0 48 49" fill="none" xmlns="http://www.w3.org/2000/svg">
<path d="M3.41554 34.317L1.25696 41.6462L0.093201 45.6065C-0.141428 46.4042 0.0744307 47.2582 0.65631 47.84C1.23819 48.4218 2.09224 48.6377 2.88059 48.4125L6.85051 47.2394L14.1803 45.081C15.3441 44.7431 16.4046 44.1519 17.3149 43.3542C17.4463 43.2416 17.5683 43.1196 17.6904 42.9976L46.24 14.4594C48.2953 12.4042 48.5487 9.24164 47.0096 6.90491C46.7937 6.57645 46.5309 6.25738 46.24 5.96646L42.5422 2.25959C40.1959 -0.0865299 36.3949 -0.0865299 34.0487 2.25959L5.49905 30.8072C4.52299 31.7832 3.80972 32.9938 3.41554 34.317ZM7.73271 35.5839C7.89226 35.0583 8.15504 34.5704 8.52106 34.1574C8.57737 34.1011 8.6243 34.0448 8.68061 33.9885L30.1257 12.5544L35.9445 18.3727L14.5088 39.8163C14.0677 40.2573 13.514 40.5858 12.9133 40.7641L10.7172 41.4116L5.57413 42.9225L7.08514 37.7798L7.73271 35.5839Z" fill="white"/>
</svg>
