<svg width="48" height="49" viewBox="0 0 48 49" fill="none" xmlns="http://www.w3.org/2000/svg">
<path d="M27.4419 44.4189L25.1627 46.7574C24.1976 47.7475 22.6371 47.7475 21.6823 46.7574L1.7238 26.2907C0.758732 25.3006 0.758732 23.6995 1.7238 22.7198L21.6823 2.24262C22.6474 1.25246 24.2079 1.25246 25.1627 2.24262L27.4419 4.58106C28.4173 5.58175 28.3967 7.21445 27.4008 8.19407L15.0295 20.2866H44.536C45.9015 20.2866 47 21.4137 47 22.8146V26.1854C47 27.5863 45.9015 28.7134 44.536 28.7134H15.0295L27.4008 40.8059C28.407 41.7856 28.4275 43.4183 27.4419 44.4189Z" fill="white"/>
</svg>
