<svg width="100%" height="100%" viewBox="0 0 48 49" version="1.1" xmlns="http://www.w3.org/2000/svg" xmlns:xlink="http://www.w3.org/1999/xlink" xml:space="preserve" xmlns:serif="http://www.serif.com/">
    <g transform="matrix(0.418113,0.418113,-0.418113,0.418113,24.2091,4.2215)">
        <path d="M-3.505,-3.005C11.689,-18.198 36.311,-18.198 51.504,-3.005C66.698,12.189 66.698,36.811 51.504,52.004C36.311,67.198 11.689,67.198 -3.505,52.004C-18.698,36.811 -18.698,12.189 -3.505,-3.005ZM31.961,24.5L43.901,12.56C45.366,11.095 45.366,8.719 43.901,7.253L41.247,4.599C39.782,3.134 37.407,3.134 35.94,4.599L24,16.539L12.06,4.599C10.595,3.134 8.219,3.134 6.753,4.599L4.099,7.253C2.634,8.718 2.634,11.093 4.099,12.56L16.039,24.5L4.099,36.44C2.634,37.905 2.634,40.281 4.099,41.747L6.753,44.401C8.218,45.866 10.595,45.866 12.06,44.401L24,32.461L35.94,44.401C37.405,45.866 39.782,45.866 41.247,44.401L43.901,41.747C45.366,40.282 45.366,37.907 43.901,36.44L31.961,24.5Z" />
    </g>
</svg>
