<svg width="48" height="49" viewBox="0 0 48 49" fill="none" xmlns="http://www.w3.org/2000/svg">
<path d="M46.1538 35.3874C47.1734 35.3874 47.9999 36.1737 48 37.1435C48 38.1134 47.1735 38.8996 46.1538 38.8996H9.23077C8.21117 38.8996 7.38462 38.1134 7.38462 37.1435C7.38471 36.1737 8.21123 35.3874 9.23077 35.3874H46.1538ZM46.1538 22.7439L46.3422 22.7525C47.2734 22.8423 48 23.5907 48 24.5C47.9998 25.4093 47.2732 26.1569 46.3422 26.2467L46.1538 26.2561H1.84615C0.826672 26.2561 0.000195271 25.4698 0 24.5C0 23.5302 0.826551 22.7439 1.84615 22.7439H46.1538ZM46.1538 10.0996C47.1735 10.0996 48 10.8858 48 11.8557C48 12.8256 47.1735 13.6118 46.1538 13.6118H24C22.9804 13.6118 22.1538 12.8256 22.1538 11.8557C22.1538 10.8858 22.9804 10.0996 24 10.0996H46.1538Z" fill="white"/>
</svg>
