<svg width="48" height="49" viewBox="0 0 48 49" fill="none" xmlns="http://www.w3.org/2000/svg">
<path d="M36.923 20.8076C36.923 11.6312 29.484 4.1923 20.3076 4.1923C11.1312 4.1923 3.6923 11.6312 3.6923 20.8076C3.6923 29.984 11.1312 37.423 20.3076 37.423C24.8964 37.423 29.0473 35.5649 32.0561 32.5561C35.0649 29.5473 36.923 25.3964 36.923 20.8076ZM40.6153 20.8076C40.6153 25.7498 38.8465 30.2806 35.9125 33.801L47.459 45.3485L47.5861 45.4882C48.1776 46.2133 48.135 47.2831 47.459 47.959C46.7831 48.635 45.7133 48.6776 44.9882 48.0861L44.8485 47.959L33.301 36.4125C29.7806 39.3465 25.2498 41.1153 20.3076 41.1153C9.09204 41.1153 0 32.0233 0 20.8076C0 9.59204 9.09204 0.5 20.3076 0.5C31.5233 0.5 40.6153 9.59204 40.6153 20.8076Z" fill="white"/>
</svg>
