<svg width="48" height="49" viewBox="0 0 48 49" fill="none" xmlns="http://www.w3.org/2000/svg">
<path d="M47.0906 18.3875C47.4562 18.0969 48 18.3687 48 18.8281V38C48 40.4844 45.9844 42.5 43.5 42.5H4.5C2.01562 42.5 0 40.4844 0 38V18.8375C0 18.3688 0.534375 18.1062 0.909375 18.3969C3.00937 20.0281 5.79375 22.1 15.3563 29.0469C17.3344 30.4906 20.6719 33.5281 24 33.5094C27.3469 33.5375 30.75 30.4344 32.6531 29.0469C42.2156 22.1 44.9906 20.0188 47.0906 18.3875ZM24 30.5C26.175 30.5375 29.3062 27.7625 30.8812 26.6188C43.3219 17.5906 44.2687 16.8031 47.1375 14.5531C47.6812 14.1312 48 13.475 48 12.7812V11C48 8.51562 45.9844 6.5 43.5 6.5H4.5C2.01562 6.5 0 8.51562 0 11V12.7812C0 13.475 0.31875 14.1219 0.8625 14.5531C3.73125 16.7937 4.67813 17.5906 17.1188 26.6188C18.6938 27.7625 21.825 30.5375 24 30.5Z" fill="white"/>
</svg>
