<svg width="45" height="49" viewBox="0 0 45 49" fill="none" xmlns="http://www.w3.org/2000/svg">
<path d="M36.8445 0.5H8.15484C6.25259 0.5 4.42826 1.34285 3.08317 2.84315C1.73809 4.34344 0.982422 6.37827 0.982422 8.5V40.5C0.982422 42.6217 1.73809 44.6566 3.08317 46.1569C4.42826 47.6571 6.25259 48.5 8.15484 48.5H36.8445C38.7467 48.5 40.5711 47.6571 41.9162 46.1569C43.2612 44.6566 44.0169 42.6217 44.0169 40.5V8.5C44.0169 6.37827 43.2612 4.34344 41.9162 2.84315C40.5711 1.34285 38.7467 0.5 36.8445 0.5ZM39.2353 40.5C39.2353 41.2072 38.9834 41.8855 38.535 42.3856C38.0867 42.8857 37.4786 43.1667 36.8445 43.1667H8.15484C7.52076 43.1667 6.91265 42.8857 6.46428 42.3856C6.01592 41.8855 5.76403 41.2072 5.76403 40.5V8.5C5.76403 7.79276 6.01592 7.11448 6.46428 6.61438C6.91265 6.11429 7.52076 5.83333 8.15484 5.83333H36.8445C37.4786 5.83333 38.0867 6.11429 38.535 6.61438C38.9834 7.11448 39.2353 7.79276 39.2353 8.5V40.5Z" fill="white"/>
<path d="M28.9759 17.2722C28.7536 17.0223 28.4892 16.8239 28.1979 16.6885C27.9065 16.5531 27.594 16.4834 27.2784 16.4834C26.9628 16.4834 26.6503 16.5531 26.359 16.6885C26.0676 16.8239 25.8032 17.0223 25.581 17.2722L22.4968 20.7389L19.4127 17.2722C18.9625 16.7701 18.3519 16.488 17.7152 16.488C17.0785 16.488 16.4679 16.7701 16.0177 17.2722C15.5675 17.7743 15.3146 18.4554 15.3146 19.1655C15.3146 19.8757 15.5675 20.5567 16.0177 21.0589L19.1258 24.4989L16.0177 27.9389C15.7937 28.1868 15.6158 28.4817 15.4944 28.8067C15.373 29.1316 15.3105 29.4802 15.3105 29.8322C15.3105 30.1842 15.373 30.5328 15.4944 30.8577C15.6158 31.1827 15.7937 31.4776 16.0177 31.7255C16.24 31.9755 16.5044 32.1739 16.7958 32.3092C17.0871 32.4446 17.3996 32.5143 17.7152 32.5143C18.0308 32.5143 18.3433 32.4446 18.6347 32.3092C18.926 32.1739 19.1904 31.9755 19.4127 31.7255L22.4968 28.2589L25.581 31.7255C25.8032 31.9755 26.0676 32.1739 26.359 32.3092C26.6503 32.4446 26.9628 32.5143 27.2784 32.5143C27.594 32.5143 27.9065 32.4446 28.1979 32.3092C28.4892 32.1739 28.7536 31.9755 28.9759 31.7255C29.2 31.4776 29.3779 31.1827 29.4992 30.8577C29.6206 30.5328 29.6831 30.1842 29.6831 29.8322C29.6831 29.4802 29.6206 29.1316 29.4992 28.8067C29.3779 28.4817 29.2 28.1868 28.9759 27.9389L25.8679 24.4989L28.9759 21.0589C29.2 20.811 29.3779 20.516 29.4992 20.1911C29.6206 19.8661 29.6831 19.5176 29.6831 19.1655C29.6831 18.8135 29.6206 18.4649 29.4992 18.14C29.3779 17.815 29.2 17.5201 28.9759 17.2722Z" fill="white"/>
</svg>
