<svg width="42" height="49" viewBox="0 0 42 49" fill="none" xmlns="http://www.w3.org/2000/svg">
<path d="M15.9844 5.3375L14.2031 8H27.7969L26.0156 5.3375C25.875 5.13125 25.6406 5 25.3875 5H16.6031C16.35 5 16.1156 5.12187 15.975 5.3375H15.9844ZM29.7656 2.84375L33.2063 8H34.5H39H39.75C40.9969 8 42 9.00313 42 10.25C42 11.4969 40.9969 12.5 39.75 12.5H39V41C39 45.1437 35.6437 48.5 31.5 48.5H10.5C6.35625 48.5 3 45.1437 3 41V12.5H2.25C1.00312 12.5 0 11.4969 0 10.25C0 9.00313 1.00312 8 2.25 8H3H7.5H8.79375L12.2344 2.83437C13.2094 1.38125 14.85 0.5 16.6031 0.5H25.3875C27.1406 0.5 28.7812 1.38125 29.7562 2.83437L29.7656 2.84375ZM7.5 12.5V41C7.5 42.6594 8.84062 44 10.5 44H31.5C33.1594 44 34.5 42.6594 34.5 41V12.5H7.5ZM15 18.5V38C15 38.825 14.325 39.5 13.5 39.5C12.675 39.5 12 38.825 12 38V18.5C12 17.675 12.675 17 13.5 17C14.325 17 15 17.675 15 18.5ZM22.5 18.5V38C22.5 38.825 21.825 39.5 21 39.5C20.175 39.5 19.5 38.825 19.5 38V18.5C19.5 17.675 20.175 17 21 17C21.825 17 22.5 17.675 22.5 18.5ZM30 18.5V38C30 38.825 29.325 39.5 28.5 39.5C27.675 39.5 27 38.825 27 38V18.5C27 17.675 27.675 17 28.5 17C29.325 17 30 17.675 30 18.5Z" fill="white"/>
</svg>
