<?xml version="1.0" encoding="UTF-8" standalone="no"?>
<!DOCTYPE svg PUBLIC "-//W3C//DTD SVG 1.1//EN" "http://www.w3.org/Graphics/SVG/1.1/DTD/svg11.dtd">
<svg width="100%" height="100%" viewBox="0 0 49 49" version="1.1" xmlns="http://www.w3.org/2000/svg" xmlns:xlink="http://www.w3.org/1999/xlink" xml:space="preserve" xmlns:serif="http://www.serif.com/" style="fill-rule:evenodd;clip-rule:evenodd;stroke-linejoin:round;stroke-miterlimit:2;">
    <g transform="matrix(1,0,0,1,1.15e-05,9.77637)">
        <path d="M21.819,14.724L1.551,-3.645C0.816,-4.31 0.816,-5.388 1.551,-6.054C2.285,-6.719 3.475,-6.719 4.209,-6.054L24.5,12.334L44.791,-6.054C45.525,-6.719 46.715,-6.719 47.449,-6.054C48.184,-5.388 48.184,-4.31 47.449,-3.645L27.181,14.724L47.449,33.092C48.184,33.757 48.184,34.836 47.449,35.501C46.715,36.166 45.525,36.166 44.791,35.501L24.5,17.113L4.209,35.501C3.475,36.166 2.285,36.166 1.551,35.501C0.816,34.836 0.816,33.757 1.551,33.092L21.819,14.724Z"/>
    </g>
</svg>
