<svg width="48" height="49" viewBox="0 0 48 49" fill="none" xmlns="http://www.w3.org/2000/svg">
<path d="M19.2 8.8998C18.54 8.8998 18 9.43981 18 10.0998V26.8998C18 27.5523 18.5175 28.0848 19.17 28.0998L24.3525 21.0348C24.69 20.5698 25.23 20.2998 25.8075 20.2998C26.385 20.2998 26.9175 20.5698 27.2625 21.0348L28.5 22.7298L32.7 16.3098C33.03 15.7998 33.6 15.4923 34.2075 15.4923C34.815 15.4923 35.385 15.7998 35.715 16.3098L43.4025 28.0848C43.9725 27.9873 44.4 27.4923 44.4 26.8998V10.0998C44.4 9.43981 43.86 8.8998 43.2 8.8998H19.2ZM14.4 10.0998C14.4 7.4523 16.5525 5.2998 19.2 5.2998H43.2C45.8475 5.2998 48 7.4523 48 10.0998V26.8998C48 29.5473 45.8475 31.6998 43.2 31.6998H19.2C16.5525 31.6998 14.4 29.5473 14.4 26.8998V10.0998ZM10.2 14.8998H12V18.4998V25.0998V33.4998V34.0998V40.0998H26.4V34.0998H30V40.0998H33.6C34.26 40.0998 34.8 39.5598 34.8 38.8998V34.0998H38.4V38.8998C38.4 41.5473 36.2475 43.6998 33.6 43.6998H30H28.2H26.4H12H10.2H8.4H4.8C2.1525 43.6998 0 41.5473 0 38.8998V19.6998C0 17.0523 2.1525 14.8998 4.8 14.8998H8.4H10.2ZM8.4 18.4998H4.8C4.14 18.4998 3.6 19.0398 3.6 19.6998V23.2998H8.4V18.4998ZM8.4 40.0998V35.2998H3.6V38.8998C3.6 39.5598 4.14 40.0998 4.8 40.0998H8.4ZM3.6 31.6998H8.4V26.8998H3.6V31.6998ZM22.8 11.2998C23.4365 11.2998 24.047 11.5527 24.4971 12.0027C24.9471 12.4528 25.2 13.0633 25.2 13.6998C25.2 14.3363 24.9471 14.9468 24.4971 15.3969C24.047 15.8469 23.4365 16.0998 22.8 16.0998C22.1635 16.0998 21.553 15.8469 21.1029 15.3969C20.6529 14.9468 20.4 14.3363 20.4 13.6998C20.4 13.0633 20.6529 12.4528 21.1029 12.0027C21.553 11.5527 22.1635 11.2998 22.8 11.2998Z" fill="white"/>
</svg>
