<svg width="48" height="49" viewBox="0 0 48 49" fill="none" xmlns="http://www.w3.org/2000/svg">
<path d="M10.8034 17.2977C12.3952 17.2977 13.9218 16.6654 15.0473 15.5398C16.1729 14.4142 16.8053 12.8876 16.8053 11.2958C16.8053 9.70402 16.1729 8.17742 15.0473 7.05185C13.9218 5.92628 12.3952 5.29395 10.8034 5.29395C9.21158 5.29395 7.68498 5.92628 6.55941 7.05185C5.43384 8.17742 4.8015 9.70402 4.8015 11.2958C4.8015 12.8876 5.43384 14.4142 6.55941 15.5398C7.68498 16.6654 9.21158 17.2977 10.8034 17.2977ZM38.412 17.2977C40.0038 17.2977 41.5304 16.6654 42.656 15.5398C43.7815 14.4142 44.4139 12.8876 44.4139 11.2958C44.4139 9.70402 43.7815 8.17742 42.656 7.05185C41.5304 5.92628 40.0038 5.29395 38.412 5.29395C36.8202 5.29395 35.2936 5.92628 34.168 7.05185C33.0425 8.17742 32.4101 9.70402 32.4101 11.2958C32.4101 12.8876 33.0425 14.4142 34.168 15.5398C35.2936 16.6654 36.8202 17.2977 38.412 17.2977ZM0 27.7035C0 28.5812 0.720225 29.3014 1.598 29.3014H17.6005C17.6155 29.3014 17.6305 29.3014 17.653 29.3014C15.6574 27.5384 14.4045 24.9651 14.4045 22.0992C14.4045 21.529 14.457 20.9738 14.547 20.4262C13.5267 19.9535 12.3939 19.6984 11.201 19.6984H7.9975C3.58612 19.6984 0 23.2846 0 27.7035ZM24.0075 29.3014C25.8081 29.3014 27.4511 28.6412 28.7115 27.5534C28.899 27.2758 29.1016 27.0057 29.3117 26.7507C29.5142 26.5031 29.7393 26.293 29.9869 26.128C30.7596 24.9726 31.2098 23.5922 31.2098 22.0992C31.2098 18.123 27.9837 14.8969 24.0075 14.8969C20.0313 14.8969 16.8053 18.123 16.8053 22.0992C16.8053 26.0754 20.0313 29.3014 24.0075 29.3014ZM28.914 33.8179C28.1413 33.3752 27.5561 32.6025 27.3535 31.7022H19.6111C14.0819 31.7022 9.603 36.1811 9.603 41.7028C9.603 42.8057 10.4958 43.706 11.6061 43.706H34.1582C34.0006 43.3158 33.9181 42.8882 33.9181 42.4756V42.2505C33.8206 42.198 33.7155 42.138 33.618 42.0779L33.4229 42.1905C32.1626 42.9182 30.3845 42.7907 29.3192 41.4627C28.9816 41.0426 28.674 40.6 28.3889 40.1423L28.3814 40.1273L28.3739 40.1123H13.4142C14.1269 37.3515 16.6327 35.3108 19.6111 35.3108H27.9012C28.1713 34.9357 28.5164 34.6281 28.914 34.3955L29.1166 34.283C29.1166 34.223 29.1166 34.1705 29.1166 34.1105C29.1166 34.0504 29.1166 33.9979 29.1166 33.9379L28.914 33.8254V33.8179ZM40.01 19.6984H36.8065C35.6136 19.6984 34.4808 19.961 33.4605 20.4262C33.558 20.9663 33.603 21.529 33.603 22.0992C33.603 23.4046 33.3404 24.6425 32.8753 25.7753C33.0628 25.8429 33.2429 25.9254 33.4079 26.0229L33.603 26.1355C33.7005 26.0754 33.7981 26.0154 33.9031 25.9629V25.7378C33.9031 24.2824 34.9009 22.8044 36.5889 22.5418C37.1816 22.4518 37.7893 22.3993 38.4045 22.3993C39.0197 22.3993 39.6274 22.4443 40.2201 22.5418C41.9081 22.8044 42.9059 24.2824 42.9059 25.7378V25.9629C43.0034 26.0154 43.1085 26.0754 43.206 26.1355L43.4011 26.0229C44.6615 25.2952 46.4395 25.4227 47.5048 26.7507C47.6774 26.9607 47.8425 27.1858 48 27.4034C47.8425 23.1195 44.3239 19.6984 40.0025 19.6984H40.01ZM24.0075 18.4981C24.4804 18.4981 24.9487 18.5912 25.3856 18.7722C25.8225 18.9532 26.2195 19.2184 26.5539 19.5528C26.8883 19.8872 27.1535 20.2842 27.3345 20.7211C27.5155 21.158 27.6086 21.6263 27.6086 22.0992C27.6086 22.5721 27.5155 23.0404 27.3345 23.4773C27.1535 23.9142 26.8883 24.3112 26.5539 24.6456C26.2195 24.98 25.8225 25.2452 25.3856 25.4262C24.9487 25.6072 24.4804 25.7003 24.0075 25.7003C23.5346 25.7003 23.0663 25.6072 22.6294 25.4262C22.1925 25.2452 21.7955 24.98 21.4611 24.6456C21.1267 24.3112 20.8615 23.9142 20.6805 23.4773C20.4995 23.0404 20.4064 22.5721 20.4064 22.0992C20.4064 21.6263 20.4995 21.158 20.6805 20.7211C20.8615 20.2842 21.1267 19.8872 21.4611 19.5528C21.7955 19.2184 22.1925 18.9532 22.6294 18.7722C23.0663 18.5912 23.5346 18.4981 24.0075 18.4981ZM46.8596 31.9948C47.3323 31.7247 47.5724 31.162 47.3698 30.6444C47.2123 30.2317 47.0247 29.8341 46.8146 29.4515L46.6421 29.1514C46.4095 28.7688 46.1544 28.4087 45.8768 28.0636C45.5317 27.6359 44.924 27.5609 44.4514 27.8385L43.0935 28.6262C42.4258 28.0561 41.6605 27.6059 40.8128 27.3058V25.7303C40.8128 25.1827 40.4451 24.695 39.905 24.6125C39.4173 24.5375 38.9222 24.4999 38.412 24.4999C37.9018 24.4999 37.4067 24.5375 36.919 24.6125C36.3789 24.695 36.0113 25.1827 36.0113 25.7303V27.3058C35.171 27.6059 34.3983 28.0561 33.7305 28.6262L32.3651 27.8385C31.8925 27.5684 31.2848 27.6434 30.9397 28.0636C30.6621 28.4087 30.407 28.7763 30.1744 29.1589L30.0019 29.4515C29.7918 29.8341 29.6043 30.2317 29.4467 30.6444C29.2516 31.1545 29.4842 31.7172 29.9569 31.9873L31.3223 32.775C31.2473 33.2027 31.2023 33.6453 31.2023 34.0954C31.2023 34.5456 31.2473 34.9882 31.3223 35.4084L29.9569 36.1961C29.4842 36.4662 29.2441 37.0289 29.4467 37.539C29.6043 37.9517 29.7918 38.3418 30.0019 38.7244L30.1819 39.032C30.407 39.4146 30.6621 39.7747 30.9397 40.1198C31.2848 40.5475 31.8925 40.6225 32.3651 40.3449L33.7305 39.5797C34.3983 40.1498 35.171 40.6 36.0113 40.9001V42.4756C36.0113 43.0232 36.3789 43.5109 36.919 43.5934C37.4067 43.6684 37.9018 43.706 38.412 43.706C38.9222 43.706 39.4173 43.6684 39.905 43.5934C40.4451 43.5109 40.8128 43.0232 40.8128 42.4756V40.9001C41.653 40.6 42.4258 40.1498 43.0935 39.5797L44.4589 40.3674C44.9315 40.6375 45.5392 40.5625 45.8843 40.1423C46.1619 39.7972 46.417 39.4371 46.6421 39.0545L46.8221 38.7394C47.0322 38.3568 47.2198 37.9667 47.3773 37.554C47.5724 37.0439 47.3398 36.4812 46.8671 36.2111L45.5017 35.4234C45.5767 34.9957 45.6218 34.5531 45.6218 34.1105C45.6218 33.6678 45.5767 33.2177 45.5017 32.79L46.8671 32.0023L46.8596 31.9948ZM35.4111 34.103C35.4111 33.3071 35.7272 32.5438 36.29 31.981C36.8528 31.4182 37.6161 31.102 38.412 31.102C39.2079 31.102 39.9712 31.4182 40.534 31.981C41.0968 32.5438 41.4129 33.3071 41.4129 34.103C41.4129 34.8988 41.0968 35.6621 40.534 36.2249C39.9712 36.7877 39.2079 37.1039 38.412 37.1039C37.6161 37.1039 36.8528 36.7877 36.29 36.2249C35.7272 35.6621 35.4111 34.8988 35.4111 34.103Z" fill="white"/>
</svg>
