<svg width="48" height="49" viewBox="0 0 48 49" fill="none" xmlns="http://www.w3.org/2000/svg">
<path d="M8.69817 6.58219C9.49266 5.80594 10.7774 5.80594 11.5634 6.58219L19.6773 14.5099C20.4718 15.2861 20.4718 16.5413 19.6773 17.3093C18.8828 18.0773 17.5981 18.0856 16.8121 17.3093L12.1635 12.7674V41.0181C12.1635 42.1164 11.2591 43 10.135 43C9.0109 43 8.10653 42.1164 8.10653 41.0181V12.7674L3.45793 17.3176C2.66344 18.0939 1.37874 18.0939 0.592701 17.3176C-0.193335 16.5413 -0.201787 15.2861 0.592701 14.5181L8.70663 6.59045L8.69817 6.58219ZM25.6867 7.32541H29.7437C30.8678 7.32541 31.7721 8.20902 31.7721 9.30733C31.7721 10.4056 30.8678 11.2893 29.7437 11.2893H25.6867C24.5626 11.2893 23.6582 10.4056 23.6582 9.30733C23.6582 8.20902 24.5626 7.32541 25.6867 7.32541ZM25.6867 17.8957H35.153C36.2771 17.8957 37.1814 18.7793 37.1814 19.8776C37.1814 20.9759 36.2771 21.8595 35.153 21.8595H25.6867C24.5626 21.8595 23.6582 20.9759 23.6582 19.8776C23.6582 18.7793 24.5626 17.8957 25.6867 17.8957ZM25.6867 28.4659H40.5622C41.6864 28.4659 42.5907 29.3495 42.5907 30.4478C42.5907 31.5461 41.6864 32.4298 40.5622 32.4298H25.6867C24.5626 32.4298 23.6582 31.5461 23.6582 30.4478C23.6582 29.3495 24.5626 28.4659 25.6867 28.4659ZM25.6867 39.0362H45.9715C47.0956 39.0362 48 39.9198 48 41.0181C48 42.1164 47.0956 43 45.9715 43H25.6867C24.5626 43 23.6582 42.1164 23.6582 41.0181C23.6582 39.9198 24.5626 39.0362 25.6867 39.0362Z" fill="white"/>
</svg>
