<svg width="48" height="49" viewBox="0 0 48 49" fill="none" xmlns="http://www.w3.org/2000/svg">
<g clip-path="url(#clip0_1333_2616)">
<path d="M24 48.5C10.7419 48.5 0 37.7581 0 24.5C0 11.2419 10.7419 0.5 24 0.5C37.2581 0.5 48 11.2419 48 24.5C48 37.7581 37.2581 48.5 24 48.5ZM26.7968 34.6032L19.4903 27.5968H37.1613C38.4484 27.5968 39.4839 26.5613 39.4839 25.2742V23.7258C39.4839 22.4387 38.4484 21.4032 37.1613 21.4032H19.4903L26.7968 14.3968C27.7355 13.4968 27.7548 11.9968 26.8355 11.0774L25.771 10.0226C24.8613 9.1129 23.3903 9.1129 22.4903 10.0226L9.64839 22.8548C8.73871 23.7645 8.73871 25.2355 9.64839 26.1355L22.4903 38.9774C23.4 39.8871 24.871 39.8871 25.771 38.9774L26.8355 37.9226C27.7548 37.0032 27.7355 35.5032 26.7968 34.6032Z" fill="white"/>
</g>
<defs>
<clipPath id="clip0_1333_2616">
<rect width="48" height="48" fill="white" transform="translate(0 0.5)"/>
</clipPath>
</defs>
</svg>
