<svg width="43" height="49" viewBox="0 0 43 49" fill="none" xmlns="http://www.w3.org/2000/svg">
<path d="M16.6934 6.13594L14.9863 8.6875H28.0137L26.3066 6.13594C26.1719 5.93828 25.9473 5.8125 25.7047 5.8125H17.2863C17.0438 5.8125 16.8191 5.9293 16.6844 6.13594H16.6934ZM29.9004 3.74609L33.1977 8.6875H34.4285H38.75H39.4688C40.6637 8.6875 41.625 9.64883 41.625 10.8438C41.625 12.0387 40.6637 13 39.4688 13H38.4266L36.2703 42.1723C36.0457 45.173 33.548 47.5 30.5383 47.5H12.4707C9.46094 47.5 6.96328 45.173 6.73867 42.1723L4.57344 13H3.53125C2.33633 13 1.375 12.0387 1.375 10.8438C1.375 9.64883 2.33633 8.6875 3.53125 8.6875H4.25H8.57148H9.80234L13.0996 3.73711C14.034 2.34453 15.6063 1.5 17.2863 1.5H25.7047C27.3848 1.5 28.957 2.34453 29.8914 3.73711L29.9004 3.74609ZM8.89492 13L11.0332 41.8578C11.0871 42.6125 11.716 43.1875 12.4707 43.1875H30.5383C31.293 43.1875 31.9129 42.6035 31.9758 41.8578L34.1051 13H8.89492ZM29.9543 23.6105L20.6105 32.9543C19.9098 33.6551 18.7688 33.6551 18.068 32.9543L14.4742 29.3605C13.7734 28.6598 13.7734 27.5187 14.4742 26.818C15.175 26.1172 16.316 26.1172 17.0168 26.818L19.3438 29.1449L27.4207 21.068C28.1215 20.3672 29.2625 20.3672 29.9633 21.068C30.6641 21.7688 30.6641 22.9098 29.9633 23.6105H29.9543Z" fill="white"/>
</svg>
