<svg width="48" height="49" viewBox="0 0 48 49" fill="none" xmlns="http://www.w3.org/2000/svg">
<path d="M31.9609 24.5L43.9011 12.5598C45.3663 11.0946 45.3663 8.71898 43.9011 7.25256L41.2474 4.59892C39.7822 3.13369 37.4066 3.13369 35.9402 4.59892L24 16.5391L12.0598 4.59892C10.5946 3.13369 8.21898 3.13369 6.75256 4.59892L4.09892 7.25256C2.63369 8.71778 2.63369 11.0934 4.09892 12.5598L16.0391 24.5L4.09892 36.4402C2.63369 37.9054 2.63369 40.281 4.09892 41.7474L6.75256 44.4011C8.21778 45.8663 10.5946 45.8663 12.0598 44.4011L24 32.4609L35.9402 44.4011C37.4054 45.8663 39.7822 45.8663 41.2474 44.4011L43.9011 41.7474C45.3663 40.2822 45.3663 37.9066 43.9011 36.4402L31.9609 24.5Z" fill="white"/>
</svg>
