<svg width="48" height="49" viewBox="0 0 48 49" fill="none" xmlns="http://www.w3.org/2000/svg">
<path d="M24 1.5C36.7056 1.5 47 11.7944 47 24.5C47 37.2056 36.7056 47.5 24 47.5C11.2944 47.5 1 37.2056 1 24.5C1 11.7944 11.2944 1.5 24 1.5ZM21.3198 14.8177L28.3218 21.5323H11.3871C10.1536 21.5323 9.16129 22.5246 9.16129 23.7581V25.2419C9.16129 26.4754 10.1536 27.4677 11.3871 27.4677H28.3218L21.3198 34.1823C20.4202 35.0448 20.4016 36.4823 21.2827 37.3633L22.3028 38.3742C23.1746 39.246 24.5843 39.246 25.4468 38.3742L37.7536 26.0766C38.6254 25.2048 38.6254 23.7952 37.7536 22.9327L25.4468 10.6165C24.575 9.74476 23.1653 9.74476 22.3028 10.6165L21.2827 11.6274C20.4016 12.5177 20.4202 13.9552 21.3198 14.8177Z" fill="white"/>
</svg>
