<svg width="164" height="45" viewBox="0 0 164 45" fill="none" xmlns="http://www.w3.org/2000/svg">
<g clip-path="url(#clip0_1306_1725)">
<path fill-rule="evenodd" clip-rule="evenodd" d="M51.5625 35.091H59.2972C67.2541 35.091 72.806 29.0491 72.806 21.2389C72.806 13.4286 67.4028 7.31348 59.334 7.31348H51.5625V35.091ZM57.0026 12.0295H57.8901C64.0705 12.0295 67.1805 15.1603 67.1805 21.2022C67.1805 26.6918 64.59 30.375 57.8901 30.375H57.0026V12.0281V12.0295Z" fill="white"/>
<path d="M90.6729 12.0281V7.31348H76.2383V35.091H90.6729V30.375H81.6783V22.8592H90.3388V18.1446H81.6783V12.0281H90.6729Z" fill="white"/>
<path fill-rule="evenodd" clip-rule="evenodd" d="M138.315 35.0902L148.768 8.32575C149.207 7.20276 150.267 6.57715 151.324 6.57715C152.382 6.57715 153.455 7.19853 153.881 8.32575L164 35.0916H158.189L156.041 29.2343H146.344L144.05 35.0916H138.312L138.315 35.0902ZM147.902 24.8113L151.289 14.7537H151.363L154.526 24.8113H147.902Z" fill="white"/>
<path d="M100.916 19.0281H100.841V7.31348H95.4014V35.091H100.841V22.6014H100.916L109.836 35.091H116.83L105.653 20.1328L116.239 7.31348H109.539L100.916 19.0281Z" fill="white"/>
<path d="M127.786 11.7336H124.881V20.0961H127.787C129.943 20.0961 131.691 18.2235 131.691 15.9156C131.691 13.6076 129.943 11.735 127.786 11.735V11.7336ZM130.665 23.7216L138.315 35.091H131.727L124.88 23.8921V35.091H119.439V7.31348H128.803C133.413 7.31348 137.15 11.0333 137.15 15.6211C137.15 19.572 134.378 22.8804 130.665 23.7216Z" fill="white"/>
<path d="M8.73551 0.244043L32.3162 13.8327C34.1281 14.8768 35.9443 17.1354 35.9443 20.1042C35.9443 23.0731 34.1295 25.3303 32.3162 26.3758L0 45.0003V36.6391L28.688 20.1042L13.2696 11.2189V23.7621L6.01478 27.9426V1.81088C6.01619 1.16977 6.34885 0.572345 6.92216 0.242634C7.43177 -0.0504435 8.12115 -0.112441 8.73551 0.242634V0.244043Z" fill="white"/>
</g>
<defs>
<clipPath id="clip0_1306_1725">
<rect width="164" height="45" fill="white"/>
</clipPath>
</defs>
</svg>
